<svg xmlns="http://www.w3.org/2000/svg" xmlns:svg="http://www.w3.org/2000/svg" id="svg1533" width="210mm" height="297mm" version="1.1" viewBox="0 0 210 297"><metadata id="metadata1530"/><g id="g2129" transform="matrix(1,0,0,1.0618463,-57.414583,-46.795473)"><path id="path2123" d="m 265,177.51953 c -6.648,0 -12,5.352 -12,12 v 34.88672 a 18.5,18.5 0 0 0 -6,13.61328 18.5,18.5 0 0 0 18.5,18.5 18.5,18.5 0 0 0 18.5,-18.5 18.5,18.5 0 0 0 -7,-14.46875 v -34.03125 c 0,-6.648 -5.352,-12 -12,-12 z" transform="scale(0.26458333)" style="opacity:1;fill:#fff;fill-opacity:1;stroke:#000;stroke-width:3.77952766;stroke-linecap:butt;stroke-linejoin:miter;stroke-miterlimit:5.9000001;stroke-dasharray:none;stroke-opacity:1;paint-order:markers fill stroke"/></g><ellipse style="opacity:1;fill:red;fill-opacity:1;stroke:none;stroke-width:1;stroke-linecap:butt;stroke-linejoin:miter;stroke-miterlimit:5.9000001;stroke-dasharray:none;stroke-opacity:1;paint-order:markers fill stroke" id="path2149" cx="12.7" cy="20.099" rx="3.175" ry="3.322"/><rect style="opacity:1;fill:red;fill-opacity:1;stroke:none;stroke-width:1.11191893;stroke-linecap:butt;stroke-linejoin:miter;stroke-miterlimit:5.9000001;stroke-dasharray:none;stroke-opacity:1;paint-order:markers fill stroke" id="rect2153" width="2.117" height="17.992" x="11.642" y="4.874" ry="1.308"/></svg>