<svg xmlns="http://www.w3.org/2000/svg" xmlns:svg="http://www.w3.org/2000/svg" xmlns:xlink="http://www.w3.org/1999/xlink" id="svg836" x="0" y="0" enable-background="new 0 0 240 133" version="1.1" viewBox="0 0 240 133" xml:space="preserve"><g id="g836"><path id="rect1381" fill="#E25D03" d="M35.3,0h48.2 v132.9H35.3c-5.3,0-9.6-4.3-9.6-9.6V9.6C25.6,4.3,29.9,0,35.3,0z" enable-background="new"/><g id="g1479" transform="translate(-46.640993,-46.062452)"><polygon id="rect8" fill="#727172" points="65.3 157.7 52.2 157.6 52.3 127.9 65.5 127.9"/><rect id="rect10" width="13.1" height="35.7" x="59.4" y="124.5" fill="#BCBCBC"/></g><g id="g1475" transform="translate(-42.294267,-30.187452)"><rect id="rect6-1" width="13.1" height="29.7" x="54.8" y="54.6" fill="#BCBCBC"/><polygon id="rect12" fill="#727172" points="58.4 87.5 45.2 87.5 45.4 50.5 58.5 50.6"/></g><path id="rect1481" d="M83.5,0h145.6 c5.5,0,9.9,4.4,9.9,9.9v112.4c0,5.5-4.4,9.9-9.9,9.9H83.5L83.5,0z" enable-background="new"/><path id="path14" d="M2.3,117.9L2.3,117.9c1.3,0,2.3-1.2,2.3-2.6V16.5c0-1.4-1-2.6-2.3-2.6l0,0 C1,13.9,0,15.1,0,16.5v98.7C0,116.7,1,117.9,2.3,117.9z"/><text fill="#B3B3B3" font-family="'ArialMT'" font-size="28" transform="matrix(3.190125e-002 -0.9995 0.9995 3.190125e-002 165.4073 78.3589)">9V</text></g></svg>