<svg xmlns="http://www.w3.org/2000/svg" xmlns:svg="http://www.w3.org/2000/svg" id="svg13385" width="210mm" height="297mm" version="1.1" viewBox="0 0 210 297"><metadata id="metadata13382"/><g id="layer1"><g id="g13377" transform="matrix(1.3721077,0,0,1.5354908,27.654742,19.31569)"><path style="fill:teal;stroke:none;stroke-width:.66991001" id="0.1.0.0" d="M -0.4035768,29.893021 V 0.229147 H 88.808052 V 29.893021 H -0.4035768 M 85.239592,3.6519021 a 1.0195615,0.91273462 0 1 0 2.039119,0 1.0195615,0.91273462 0 1 0 -2.039119,0 z m 0,4.5636725 a 1.0195615,0.91273462 0 1 0 2.039119,0 1.0195615,0.91273462 0 1 0 -2.039119,0 z m 0,4.5636734 a 1.0195615,0.91273462 0 1 0 2.039119,0 1.0195615,0.91273462 0 1 0 -2.039119,0 z m 0,4.563673 a 1.0195615,0.91273462 0 1 0 2.039119,0 1.0195615,0.91273462 0 1 0 -2.039119,0 z m 0,4.563673 a 1.0195615,0.91273462 0 1 0 2.039119,0 1.0195615,0.91273462 0 1 0 -2.039119,0 z m 0,4.563673 a 1.0195615,0.91273462 0 1 0 2.039119,0 1.0195615,0.91273462 0 1 0 -2.039119,0 z"/><ellipse style="fill:#00f;stroke:#000;stroke-width:.81016427" id="connector13pin" cx="86.255" cy="4.096" connectorname="RTS_5V" rx="1.446" ry="1.275"/><ellipse style="fill:#00f;stroke:#000;stroke-width:.81016427" id="connector15pin" cx="86.255" cy="8.571" connectorname="RX_5V" rx="1.446" ry="1.275"/><ellipse style="fill:#00f;stroke:#000;stroke-width:.81016427" id="connector17pin" cx="86.255" cy="13.046" connectorname="TX_5V" rx="1.446" ry="1.275"/><ellipse style="fill:#00f;stroke:#000;stroke-width:.81016427" id="connector14pin" cx="86.255" cy="17.521" connectorname="VCC" rx="1.446" ry="1.275"/><ellipse style="fill:#00f;stroke:#000;stroke-width:.81016427" id="connector16pin" cx="86.255" cy="21.995" connectorname="CTS_5V" rx="1.446" ry="1.275"/><ellipse style="fill:#00f;stroke:#000;stroke-width:.81016427" id="connector12pin" cx="86.255" cy="26.47" connectorname="GND" rx="1.446" ry="1.275"/><g id="g6442" transform="matrix(0.70491159,0,0,0.62151082,-9.2837734,-39.1608)"><rect style="opacity:1;fill:#ff8080;fill-opacity:1;stroke:none;stroke-width:6.80315018;stroke-linecap:round;stroke-linejoin:round;stroke-miterlimit:4;stroke-dasharray:none;stroke-opacity:1;paint-order:normal" id="rect5455-2" width="1.672" height="12.073" x="43.107" y="65.727"/><rect style="opacity:1;fill:#ff8080;fill-opacity:1;stroke:none;stroke-width:6.80315018;stroke-linecap:round;stroke-linejoin:round;stroke-miterlimit:4;stroke-dasharray:none;stroke-opacity:1;paint-order:normal" id="rect5455-9" width="1.672" height="12.073" x="48.529" y="65.727"/><rect style="opacity:1;fill:#ff8080;fill-opacity:1;stroke:none;stroke-width:6.80315018;stroke-linecap:round;stroke-linejoin:round;stroke-miterlimit:4;stroke-dasharray:none;stroke-opacity:1;paint-order:normal" id="rect5455-21" width="1.672" height="12.073" x="54.357" y="65.727"/><rect style="opacity:1;fill:#ff8080;fill-opacity:1;stroke:none;stroke-width:6.80315018;stroke-linecap:round;stroke-linejoin:round;stroke-miterlimit:4;stroke-dasharray:none;stroke-opacity:1;paint-order:normal" id="rect5455-219" width="1.672" height="12.073" x="59.779" y="65.727"/><rect style="opacity:1;fill:#ff8080;fill-opacity:1;stroke:none;stroke-width:6.80315018;stroke-linecap:round;stroke-linejoin:round;stroke-miterlimit:4;stroke-dasharray:none;stroke-opacity:1;paint-order:normal" id="rect5455-210" width="1.672" height="12.073" x="65.607" y="65.727"/><rect style="opacity:1;fill:#ff8080;fill-opacity:1;stroke:none;stroke-width:6.80315018;stroke-linecap:round;stroke-linejoin:round;stroke-miterlimit:4;stroke-dasharray:none;stroke-opacity:1;paint-order:normal" id="rect5455-0" width="1.672" height="12.073" x="71.029" y="65.727"/><rect style="opacity:1;fill:#ff8080;fill-opacity:1;stroke:none;stroke-width:6.80315018;stroke-linecap:round;stroke-linejoin:round;stroke-miterlimit:4;stroke-dasharray:none;stroke-opacity:1;paint-order:normal" id="rect5455-99" width="1.672" height="12.073" x="76.857" y="65.727"/><rect style="opacity:1;fill:#ff8080;fill-opacity:1;stroke:none;stroke-width:6.80315018;stroke-linecap:round;stroke-linejoin:round;stroke-miterlimit:4;stroke-dasharray:none;stroke-opacity:1;paint-order:normal" id="rect5455" width="1.672" height="12.073" x="37.279" y="65.727"/><rect style="opacity:1;fill:#ff8080;fill-opacity:1;stroke:none;stroke-width:6.80315018;stroke-linecap:round;stroke-linejoin:round;stroke-miterlimit:4;stroke-dasharray:none;stroke-opacity:1;paint-order:normal" id="rect5455-99-3" width="1.672" height="12.073" x="81.677" y="65.577"/><rect style="opacity:1;fill:#ff8080;fill-opacity:1;stroke:none;stroke-width:6.80315018;stroke-linecap:round;stroke-linejoin:round;stroke-miterlimit:4;stroke-dasharray:none;stroke-opacity:1;paint-order:normal" id="rect5455-99-1" width="1.672" height="12.073" x="87.506" y="65.577"/><rect style="opacity:1;fill:#ff8080;fill-opacity:1;stroke:none;stroke-width:6.80315018;stroke-linecap:round;stroke-linejoin:round;stroke-miterlimit:4;stroke-dasharray:none;stroke-opacity:1;paint-order:normal" id="rect5455-99-4" width="1.672" height="12.073" x="92.927" y="65.577"/><rect style="opacity:1;fill:#ff8080;fill-opacity:1;stroke:none;stroke-width:6.80315018;stroke-linecap:round;stroke-linejoin:round;stroke-miterlimit:4;stroke-dasharray:none;stroke-opacity:1;paint-order:normal" id="rect5455-99-9" width="1.672" height="12.073" x="98.756" y="65.577"/><rect style="opacity:1;fill:#ff8080;fill-opacity:1;stroke:none;stroke-width:6.80315018;stroke-linecap:round;stroke-linejoin:round;stroke-miterlimit:4;stroke-dasharray:none;stroke-opacity:1;paint-order:normal" id="rect5455-99-6" width="1.672" height="12.073" x="104.177" y="65.577"/><rect style="opacity:1;fill:#ff8080;fill-opacity:1;stroke:none;stroke-width:6.80315018;stroke-linecap:round;stroke-linejoin:round;stroke-miterlimit:4;stroke-dasharray:none;stroke-opacity:1;paint-order:normal" id="rect5455-99-8" width="1.672" height="12.073" x="79.727" y="-123.75" transform="rotate(90)"/><rect style="opacity:1;fill:#ff8080;fill-opacity:1;stroke:none;stroke-width:6.80315018;stroke-linecap:round;stroke-linejoin:round;stroke-miterlimit:4;stroke-dasharray:none;stroke-opacity:1;paint-order:normal" id="rect5455-99-8-1" width="1.672" height="12.073" x="83.477" y="-123.75" transform="rotate(90)"/><rect style="opacity:1;fill:#ff8080;fill-opacity:1;stroke:none;stroke-width:6.80315018;stroke-linecap:round;stroke-linejoin:round;stroke-miterlimit:4;stroke-dasharray:none;stroke-opacity:1;paint-order:normal" id="rect5455-99-8-4" width="1.672" height="12.073" x="87.227" y="-123.75" transform="rotate(90)"/><rect style="opacity:1;fill:#ff8080;fill-opacity:1;stroke:none;stroke-width:6.80315018;stroke-linecap:round;stroke-linejoin:round;stroke-miterlimit:4;stroke-dasharray:none;stroke-opacity:1;paint-order:normal" id="rect5455-99-8-2" width="1.672" height="12.073" x="90.977" y="-123.75" transform="rotate(90)"/><rect style="opacity:1;fill:#ff8080;fill-opacity:1;stroke:none;stroke-width:6.80315018;stroke-linecap:round;stroke-linejoin:round;stroke-miterlimit:4;stroke-dasharray:none;stroke-opacity:1;paint-order:normal" id="rect5455-99-8-22" width="1.672" height="12.073" x="94.727" y="-123.75" transform="rotate(90)"/><rect style="opacity:1;fill:#ff8080;fill-opacity:1;stroke:none;stroke-width:6.80315018;stroke-linecap:round;stroke-linejoin:round;stroke-miterlimit:4;stroke-dasharray:none;stroke-opacity:1;paint-order:normal" id="rect5455-99-8-5" width="1.672" height="12.073" x="98.477" y="-123.75" transform="rotate(90)"/><rect style="opacity:1;fill:#ff8080;fill-opacity:1;stroke:none;stroke-width:6.80315018;stroke-linecap:round;stroke-linejoin:round;stroke-miterlimit:4;stroke-dasharray:none;stroke-opacity:1;paint-order:normal" id="rect5455-99-8-27" width="1.672" height="12.073" x="102.227" y="-123.75" transform="rotate(90)"/><rect style="opacity:1;fill:#ff8080;fill-opacity:1;stroke:none;stroke-width:6.80315018;stroke-linecap:round;stroke-linejoin:round;stroke-miterlimit:4;stroke-dasharray:none;stroke-opacity:1;paint-order:normal" id="rect5455-99-8-40" width="1.672" height="12.073" x="105.977" y="-123.75" transform="rotate(90)"/><rect style="opacity:1;fill:#ff8080;fill-opacity:1;stroke:none;stroke-width:6.80315018;stroke-linecap:round;stroke-linejoin:round;stroke-miterlimit:4;stroke-dasharray:none;stroke-opacity:1;paint-order:normal" id="rect5455-1" width="1.672" height="12.073" x="88.328" y="98.477"/><rect style="opacity:1;fill:#ff8080;fill-opacity:1;stroke:none;stroke-width:6.80315018;stroke-linecap:round;stroke-linejoin:round;stroke-miterlimit:4;stroke-dasharray:none;stroke-opacity:1;paint-order:normal" id="rect5455-3" width="1.672" height="12.073" x="82.5" y="98.477"/><rect style="opacity:1;fill:#ff8080;fill-opacity:1;stroke:none;stroke-width:6.80315018;stroke-linecap:round;stroke-linejoin:round;stroke-miterlimit:4;stroke-dasharray:none;stroke-opacity:1;paint-order:normal" id="rect5455-10" width="1.672" height="12.073" x="77.078" y="98.477"/><rect style="opacity:1;fill:#ff8080;fill-opacity:1;stroke:none;stroke-width:6.80315018;stroke-linecap:round;stroke-linejoin:round;stroke-miterlimit:4;stroke-dasharray:none;stroke-opacity:1;paint-order:normal" id="rect5455-4" width="1.672" height="12.073" x="71.25" y="98.477"/><rect style="opacity:1;fill:#ff8080;fill-opacity:1;stroke:none;stroke-width:6.80315018;stroke-linecap:round;stroke-linejoin:round;stroke-miterlimit:4;stroke-dasharray:none;stroke-opacity:1;paint-order:normal" id="rect5455-215" width="1.672" height="12.073" x="65.828" y="98.477"/><rect style="opacity:1;fill:#ff8080;fill-opacity:1;stroke:none;stroke-width:6.80315018;stroke-linecap:round;stroke-linejoin:round;stroke-miterlimit:4;stroke-dasharray:none;stroke-opacity:1;paint-order:normal" id="rect5455-6" width="1.672" height="12.073" x="60" y="98.477"/><rect style="opacity:1;fill:#ff8080;fill-opacity:1;stroke:none;stroke-width:6.80315018;stroke-linecap:round;stroke-linejoin:round;stroke-miterlimit:4;stroke-dasharray:none;stroke-opacity:1;paint-order:normal" id="rect5455-27" width="1.672" height="12.073" x="54.578" y="98.477"/><rect style="opacity:1;fill:#ff8080;fill-opacity:1;stroke:none;stroke-width:6.80315018;stroke-linecap:round;stroke-linejoin:round;stroke-miterlimit:4;stroke-dasharray:none;stroke-opacity:1;paint-order:normal" id="rect5455-5" width="1.672" height="12.073" x="37.5" y="98.477"/><rect style="opacity:1;fill:#ff8080;fill-opacity:1;stroke:none;stroke-width:6.80315018;stroke-linecap:round;stroke-linejoin:round;stroke-miterlimit:4;stroke-dasharray:none;stroke-opacity:1;paint-order:normal" id="rect5455-45" width="1.672" height="12.073" x="43.328" y="98.477"/><rect style="opacity:1;fill:#ff8080;fill-opacity:1;stroke:none;stroke-width:6.80315018;stroke-linecap:round;stroke-linejoin:round;stroke-miterlimit:4;stroke-dasharray:none;stroke-opacity:1;paint-order:normal" id="rect5455-13" width="1.672" height="12.073" x="48.75" y="98.477"/><rect style="opacity:1;fill:#ff8080;fill-opacity:1;stroke:none;stroke-width:6.80315018;stroke-linecap:round;stroke-linejoin:round;stroke-miterlimit:4;stroke-dasharray:none;stroke-opacity:1;paint-order:normal" id="rect5455-62" width="1.672" height="12.073" x="93.75" y="98.477"/><rect style="opacity:1;fill:#ff8080;fill-opacity:1;stroke:none;stroke-width:6.80315018;stroke-linecap:round;stroke-linejoin:round;stroke-miterlimit:4;stroke-dasharray:none;stroke-opacity:1;paint-order:normal" id="rect5455-08" width="1.672" height="12.073" x="99.578" y="98.477"/><rect style="opacity:1;fill:#ff8080;fill-opacity:1;stroke:none;stroke-width:6.80315018;stroke-linecap:round;stroke-linejoin:round;stroke-miterlimit:4;stroke-dasharray:none;stroke-opacity:1;paint-order:normal" id="rect5455-06" width="1.672" height="12.073" x="105" y="98.477"/><rect style="opacity:1;fill:#ff8080;fill-opacity:1;stroke:none;stroke-width:6.83298922;stroke-linecap:round;stroke-linejoin:round;stroke-miterlimit:4;stroke-dasharray:none;stroke-opacity:1;paint-order:normal" id="rect5455-99-8-20" width="1.672" height="12.179" x="75.977" y="-123.856" transform="rotate(90)"/><rect style="opacity:1;fill:#ff8080;fill-opacity:1;stroke:none;stroke-width:6.80315018;stroke-linecap:round;stroke-linejoin:round;stroke-miterlimit:4;stroke-dasharray:none;stroke-opacity:1;paint-order:normal" id="rect5455-99-8-8" width="1.672" height="12.073" x="71.75" y="-123.564" transform="rotate(90)"/><rect style="opacity:1;fill:#ff8080;fill-opacity:1;stroke:none;stroke-width:6.80315018;stroke-linecap:round;stroke-linejoin:round;stroke-miterlimit:4;stroke-dasharray:none;stroke-opacity:1;paint-order:normal" id="rect5455-99-8-3" width="1.672" height="12.073" x="67.836" y="-123.392" transform="rotate(90)"/><rect style="opacity:1;fill:#ff8080;fill-opacity:1;stroke:none;stroke-width:6.80315018;stroke-linecap:round;stroke-linejoin:round;stroke-miterlimit:4;stroke-dasharray:none;stroke-opacity:1;paint-order:normal" id="rect5538" width="2.415" height=".186" x="62.441" y="111.771"/><rect style="opacity:1;fill:#ff8080;fill-opacity:1;stroke:none;stroke-width:6.80315018;stroke-linecap:round;stroke-linejoin:round;stroke-miterlimit:4;stroke-dasharray:none;stroke-opacity:1;paint-order:normal" id="rect5455-99-6-4" width="1.672" height="12.073" x="108.75" y="65.55"/><rect style="opacity:1;fill:#ff8080;fill-opacity:1;stroke:none;stroke-width:6.80315018;stroke-linecap:round;stroke-linejoin:round;stroke-miterlimit:4;stroke-dasharray:none;stroke-opacity:1;paint-order:normal" id="rect5455-99-6-9" width="1.672" height="12.073" x="112.5" y="65.55"/><rect style="opacity:1;fill:#ff8080;fill-opacity:1;stroke:none;stroke-width:6.80315018;stroke-linecap:round;stroke-linejoin:round;stroke-miterlimit:4;stroke-dasharray:none;stroke-opacity:1;paint-order:normal" id="rect5455-99-6-8" width="1.672" height="12.073" x="116.25" y="65.55"/><rect style="opacity:1;fill:#ff8080;fill-opacity:1;stroke:none;stroke-width:6.80315018;stroke-linecap:round;stroke-linejoin:round;stroke-miterlimit:4;stroke-dasharray:none;stroke-opacity:1;paint-order:normal" id="rect5455-99-6-44" width="1.672" height="12.073" x="108.75" y="98.477"/><rect style="opacity:1;fill:#ff8080;fill-opacity:1;stroke:none;stroke-width:6.80315018;stroke-linecap:round;stroke-linejoin:round;stroke-miterlimit:4;stroke-dasharray:none;stroke-opacity:1;paint-order:normal" id="rect5455-99-6-5" width="1.672" height="12.073" x="112.5" y="98.477"/><rect style="opacity:1;fill:#ff8080;fill-opacity:1;stroke:none;stroke-width:6.80315018;stroke-linecap:round;stroke-linejoin:round;stroke-miterlimit:4;stroke-dasharray:none;stroke-opacity:1;paint-order:normal" id="rect5455-99-6-6" width="1.672" height="12.073" x="116.25" y="98.477"/></g><rect id="rect3273" width="73.89" height="25.1" x="2.416" y="2.836" style="opacity:.95999995;fill:green;stroke-width:.69993967"/><rect id="rect3013" width="24.984" height="22.898" x="27.129" y="2.923" style="fill:#000;stroke-width:.66189891"/><rect id="rect3015" width="18.861" height="17.413" x="57.445" y="2.836" style="fill:#000;stroke-width:.66189891"/><rect id="rect3019" width="14.417" height="1.393" x="2.598" y="2.923" style="fill:#ff0;stroke-width:.66189891"/><rect id="rect3019-7" width="11.455" height="1.393" x="2.655" y="6.988" style="fill:#ff0;stroke-width:.66189891"/><rect id="rect3019-4" width="11.455" height="1.393" x="2.754" y="11.14" style="fill:#ff0;stroke-width:.66189891"/><rect id="rect3019-4-0" width="11.455" height="1.393" x="2.754" y="15.117" style="fill:#ff0;stroke-width:.66189891"/><rect id="rect3019-4-0-9" width="11.455" height="1.393" x="2.754" y="19.095" style="fill:#ff0;stroke-width:.66189891"/><rect id="rect3019-4-0-9-4" width="11.455" height="1.393" x="2.614" y="22.971" style="fill:#ff0;stroke-width:.66189891"/><rect id="rect3019-8" width="5.137" height="1.58" x="-8.11" y="2.442" transform="rotate(-90)" style="fill:#ff0;stroke-width:.66189891"/><rect id="rect3019-8-2" width="5.137" height="1.58" x="-12.42" y="12.515" transform="rotate(-90)" style="fill:#ff0;stroke-width:.66189891"/><rect id="rect3019-8-2-4" width="5.137" height="1.58" x="-16.425" y="2.738" transform="rotate(-90)" style="fill:#ff0;stroke-width:.66189891"/><rect id="rect3019-8-2-4-5" width="5.137" height="1.58" x="-20.343" y="12.515" transform="rotate(-90)" style="fill:#ff0;stroke-width:.66189891"/><rect id="rect3019-8-2-4-5-7" width="5.137" height="1.58" x="-24.174" y="2.64" transform="rotate(-90)" style="fill:#ff0;stroke-width:.66189891"/><rect id="rect3019-8-2-4-5-1" width="5.137" height="1.58" x="-28.179" y="12.416" transform="rotate(-90)" style="fill:#ff0;stroke-width:.66189891"/><rect id="rect3019-4-0-9-4-1" width="11.455" height="1.393" x="2.416" y="26.889" style="fill:#ff0;stroke-width:.66189891"/><rect style="fill:#ff0;stroke-width:.66189891" id="rect4580" width="11.455" height="1.393" x="2.754" y="11.14"/><text id="text4584" x="77.652" y="4.273" transform="scale(1.0410144,0.96060151)" xml:space="preserve" style="font-style:normal;font-weight:400;font-size:1.90425134px;line-height:1.25;font-family:sans-serif;letter-spacing:0;word-spacing:0;fill:#fff;fill-opacity:1;stroke:none;stroke-width:.17852356"><tspan style="font-size:1.90425134px;fill:#fff;stroke-width:.17852356" id="tspan4582" x="77.652" y="4.273">key</tspan></text><text id="text4584-4" x="76.852" y="9.04" transform="scale(1.0410144,0.96060151)" xml:space="preserve" style="font-style:normal;font-weight:400;font-size:1.90425134px;line-height:1.25;font-family:sans-serif;letter-spacing:0;word-spacing:0;fill:#fff;fill-opacity:1;stroke:none;stroke-width:.17852356"><tspan style="font-size:1.90425134px;fill:#fff;stroke-width:.17852356" id="tspan4582-8" x="76.852" y="9.04">VCC</tspan></text><text id="text4584-2" x="76.763" y="13.978" transform="scale(1.0410144,0.96060151)" xml:space="preserve" style="font-style:normal;font-weight:400;font-size:1.90425134px;line-height:1.25;font-family:sans-serif;letter-spacing:0;word-spacing:0;fill:#fff;fill-opacity:1;stroke:none;stroke-width:.17852356"><tspan style="font-size:1.90425134px;fill:#fff;stroke-width:.17852356" id="tspan4582-7" x="76.763" y="13.978">GND</tspan></text><text id="text4584-9" x="77.119" y="18.745" transform="scale(1.0410144,0.96060151)" xml:space="preserve" style="font-style:normal;font-weight:400;font-size:1.90425134px;line-height:1.25;font-family:sans-serif;letter-spacing:0;word-spacing:0;fill:#fff;fill-opacity:1;stroke:none;stroke-width:.17852356"><tspan style="font-size:1.90425134px;fill:#fff;stroke-width:.17852356" id="tspan4582-71" x="77.119" y="18.745">TXD</tspan></text><text id="text4584-44" x="76.852" y="23.169" transform="scale(1.0410144,0.96060151)" xml:space="preserve" style="font-style:normal;font-weight:400;font-size:1.90425134px;line-height:1.25;font-family:sans-serif;letter-spacing:0;word-spacing:0;fill:#fff;fill-opacity:1;stroke:none;stroke-width:.17852356"><tspan style="font-size:1.90425134px;fill:#fff;stroke-width:.17852356" id="tspan4582-1" x="76.852" y="23.169">RXD</tspan></text><text id="text4584-0" x="75.785" y="27.94" transform="scale(1.0410144,0.96060151)" xml:space="preserve" style="font-style:normal;font-weight:400;font-size:1.90425134px;line-height:1.25;font-family:sans-serif;letter-spacing:0;word-spacing:0;fill:#fff;fill-opacity:1;stroke:none;stroke-width:.17852356"><tspan style="font-size:1.90425134px;fill:#fff;stroke-width:.17852356" id="tspan4582-5" x="75.785" y="27.94">State</tspan></text><path id="rect5369" d="m 85.239592,4.0958779 c -0.0049,-0.5435653 0.925809,-0.9874073 2.086284,-0.9951631 L 104.73828,2.9843412 c 0,0 0.26763,0.6728122 0.27047,1.0024087 0.003,0.329599 -0.2536,0.9599179 -0.2536,0.9599179 L 87.342752,5.0630413 c -1.160475,0.00775 -2.098487,-0.4235994 -2.10316,-0.9671634 z" style="opacity:1;fill:#b3b3b3;fill-opacity:1;stroke:none;stroke-width:3.2821002;stroke-linecap:round;stroke-linejoin:round;stroke-miterlimit:4;stroke-dasharray:none;stroke-opacity:1;paint-order:normal"/><path id="rect5369-4" d="m 85.239592,8.5707556 c -0.0049,-0.5435652 0.925809,-0.9874072 2.086284,-0.9951631 L 104.73828,7.459219 c 0,0 0.26764,0.6728122 0.27047,1.0024087 0.003,0.329599 -0.2536,0.9599178 -0.2536,0.9599178 L 87.342752,9.5379191 c -1.160475,0.00775 -2.098487,-0.4235994 -2.10316,-0.9671635 z" style="opacity:1;fill:#b3b3b3;fill-opacity:1;stroke:none;stroke-width:3.2821002;stroke-linecap:round;stroke-linejoin:round;stroke-miterlimit:4;stroke-dasharray:none;stroke-opacity:1;paint-order:normal"/><path id="rect5369-7" d="m 85.239592,13.045634 c -0.0049,-0.543566 0.925809,-0.987408 2.086284,-0.995164 l 17.412404,-0.116373 c 0,0 0.26763,0.672812 0.27047,1.002409 0.003,0.329599 -0.2536,0.959917 -0.2536,0.959917 l -17.412398,0.116374 c -1.160475,0.0077 -2.098487,-0.423599 -2.10316,-0.967163 z" style="opacity:1;fill:#b3b3b3;fill-opacity:1;stroke:none;stroke-width:3.2821002;stroke-linecap:round;stroke-linejoin:round;stroke-miterlimit:4;stroke-dasharray:none;stroke-opacity:1;paint-order:normal"/><path id="rect5369-75" d="m 85.239592,17.520511 c -0.0049,-0.543565 0.925809,-0.987407 2.086284,-0.995163 l 17.412404,-0.116373 c 0,0 0.26764,0.672812 0.27047,1.002408 0.003,0.329599 -0.2536,0.959918 -0.2536,0.959918 l -17.412398,0.116374 c -1.160475,0.0078 -2.098487,-0.4236 -2.10316,-0.967164 z" style="opacity:1;fill:#b3b3b3;fill-opacity:1;stroke:none;stroke-width:3.2821002;stroke-linecap:round;stroke-linejoin:round;stroke-miterlimit:4;stroke-dasharray:none;stroke-opacity:1;paint-order:normal"/><path id="rect5369-8" d="m 85.239592,21.995389 c -0.0049,-0.543565 0.925809,-0.987407 2.086284,-0.995163 l 17.412404,-0.116373 c 0,0 0.26763,0.672812 0.27047,1.002408 0.003,0.329599 -0.2536,0.959918 -0.2536,0.959918 l -17.412398,0.116374 c -1.160475,0.0078 -2.098487,-0.4236 -2.10316,-0.967164 z" style="opacity:1;fill:#b3b3b3;fill-opacity:1;stroke:none;stroke-width:3.2821002;stroke-linecap:round;stroke-linejoin:round;stroke-miterlimit:4;stroke-dasharray:none;stroke-opacity:1;paint-order:normal"/><path id="rect5369-88" d="m 85.239592,26.470267 c -0.0049,-0.543565 0.925809,-0.987407 2.086284,-0.995163 L 104.73828,25.35873 c 0,0 0.26763,0.672813 0.27047,1.002409 0.003,0.329599 -0.2536,0.959918 -0.2536,0.959918 l -17.412398,0.116374 c -1.160475,0.0078 -2.098487,-0.4236 -2.10316,-0.967164 z" style="opacity:1;fill:#b3b3b3;fill-opacity:1;stroke:none;stroke-width:3.2821002;stroke-linecap:round;stroke-linejoin:round;stroke-miterlimit:4;stroke-dasharray:none;stroke-opacity:1;paint-order:normal"/><text id="text5413" x="30.315" y="9.352" transform="scale(0.98456544,1.0156765)" xml:space="preserve" style="font-style:normal;font-weight:400;font-size:5.75135994px;line-height:1.25;font-family:sans-serif;letter-spacing:0;word-spacing:0;fill:#f9f9f9;fill-opacity:1;stroke:none;stroke-width:1.07837987"><tspan style="fill:#f9f9f9;stroke-width:1.07837987" id="tspan5411" x="30.315" y="9.352">HC-05</tspan></text><text id="text5417" x="27.218" y="17.556" transform="scale(1.0524021,0.95020718)" xml:space="preserve" style="font-style:normal;font-weight:400;font-size:4.34080744px;line-height:1.25;font-family:sans-serif;letter-spacing:0;word-spacing:0;fill:#fff;fill-opacity:1;stroke:none;stroke-width:.81390142"><tspan style="fill:#fff;stroke-width:.81390142" id="tspan5415" x="27.218" y="17.556">Bluetooth</tspan></text></g></g></svg>