<svg xmlns="http://www.w3.org/2000/svg" xmlns:xlink="http://www.w3.org/1999/xlink" x="0" y="0" enable-background="new 0 0 512 238.3" version="1.0" viewBox="0 0 512 238.3" xml:space="preserve"><g><g transform="matrix(0.27161152,0,0,0.28218158,157.40841,-44.879976)"><g transform="translate(-3,-12.5)"><path fill="#18592D" d="M1294.7,171.5H-564.6c-6.7,0-11.9,5.4-11.9,11.9V1004 c0,6.7,5.4,11.9,11.9,11.9h1859.3c6.7,0,11.9-5.4,11.9-11.9V183.6C1306.8,177,1301.3,171.5,1294.7,171.5L1294.7,171.5z M-522.7,993c-16.7,0-29.8-13.1-29.8-29.8s13.1-29.8,29.8-29.8c16.7,0,29.8,13.1,29.8,29.8S-506,993-522.7,993z M-522.7,254.4 c-16.7,0-29.8-13.1-29.8-29.8s13.1-29.8,29.8-29.8c16.7,0,29.8,13.1,29.8,29.8S-506,254.4-522.7,254.4z M-412.3,215.7 c-6.7,0-11.9-5.4-11.9-11.9c0-6.5,5.4-11.9,11.9-11.9c6.7,0,11.9,5.4,11.9,11.9C-400.4,210.2-405.6,215.7-412.3,215.7z M-352.4,215.7c-6.7,0-11.9-5.4-11.9-11.9c0-6.5,5.4-11.9,11.9-11.9s11.9,5.4,11.9,11.9C-340.5,210.2-345.7,215.7-352.4,215.7z M-292.5,215.7c-6.7,0-11.9-5.4-11.9-11.9c0-6.5,5.4-11.9,11.9-11.9c6.5,0,11.9,5.4,11.9,11.9 C-280.6,210.2-286.1,215.7-292.5,215.7z M-232.8,215.7c-6.7,0-11.9-5.4-11.9-11.9c0-6.5,5.4-11.9,11.9-11.9s11.9,5.4,11.9,11.9 C-221,210.2-226.2,215.7-232.8,215.7L-232.8,215.7z M-173,215.7c-6.7,0-11.9-5.4-11.9-11.9c0-6.5,5.4-11.9,11.9-11.9 c6.7,0,11.9,5.4,11.9,11.9C-161.1,210.2-166.5,215.7-173,215.7z M-113.3,215.7c-6.7,0-11.9-5.4-11.9-11.9 c0-6.5,5.4-11.9,11.9-11.9c6.7,0,11.9,5.4,11.9,11.9C-101.4,210.2-106.7,215.7-113.3,215.7z M-53.4,215.7 c-6.7,0-11.9-5.4-11.9-11.9c0-6.5,5.4-11.9,11.9-11.9c6.7,0,11.9,5.4,11.9,11.9C-41.6,210.2-46.8,215.7-53.4,215.7z M6.4,215.7 c-6.7,0-11.9-5.4-11.9-11.9c0-6.5,5.4-11.9,11.9-11.9c6.7,0,11.9,5.4,11.9,11.9C18.3,210.2,12.9,215.7,6.4,215.7z M66.1,215.7 c-6.7,0-11.9-5.4-11.9-11.9c0-6.5,5.4-11.9,11.9-11.9c6.7,0,11.9,5.4,11.9,11.9C78,210.2,72.7,215.7,66.1,215.7z M126,215.7 c-6.7,0-11.9-5.4-11.9-11.9c0-6.5,5.4-11.9,11.9-11.9s11.9,5.4,11.9,11.9C137.8,210.2,132.4,215.7,126,215.7z M185.6,215.7 c-6.7,0-11.9-5.4-11.9-11.9c0-6.5,5.4-11.9,11.9-11.9c6.7,0,11.9,5.4,11.9,11.9C197.5,210.2,192.3,215.7,185.6,215.7z M245.5,215.7c-6.7,0-11.9-5.4-11.9-11.9c0-6.5,5.4-11.9,11.9-11.9s11.9,5.4,11.9,11.9C257.4,210.2,252.1,215.7,245.5,215.7z M305.4,215.7c-6.7,0-11.9-5.4-11.9-11.9c0-6.5,5.4-11.9,11.9-11.9s11.9,5.4,11.9,11.9C317.2,210.2,311.8,215.7,305.4,215.7z M365,215.7c-6.7,0-11.9-5.4-11.9-11.9c0-6.5,5.4-11.9,11.9-11.9c6.5,0,11.9,5.4,11.9,11.9C376.9,210.2,371.7,215.7,365,215.7z M424.9,215.7c-6.7,0-11.9-5.4-11.9-11.9c0-6.5,5.4-11.9,11.9-11.9c6.7,0,11.9,5.4,11.9,11.9 C436.8,210.2,431.3,215.7,424.9,215.7z M484.6,215.7c-6.7,0-11.9-5.4-11.9-11.9c0-6.5,5.4-11.9,11.9-11.9 c6.7,0,11.9,5.4,11.9,11.9C496.4,210.2,491.2,215.7,484.6,215.7z M1253,993c-16.7,0-29.8-13.1-29.8-29.8s13.1-29.8,29.8-29.8 c16.7,0,29.8,13.1,29.8,29.8S1269.7,993,1253,993z M1253,254.4c-16.7,0-29.8-13.1-29.8-29.8s13.1-29.8,29.8-29.8 c16.7,0,29.8,13.1,29.8,29.8S1269.7,254.4,1253,254.4z"/><ellipse id="circle7953" cx="-410.8" cy="206.3" fill="none" stroke="#7C7C79" stroke-miterlimit="10" stroke-width="2.107" rx="3.8" ry="4"/><ellipse id="circle7957" cx="-350.9" cy="206.3" fill="none" stroke="#7C7C79" stroke-miterlimit="10" stroke-width="2.107" rx="3.8" ry="4"/><ellipse id="circle7961" cx="-291.2" cy="206.3" fill="none" stroke="#7C7C79" stroke-miterlimit="10" stroke-width="2.107" rx="3.8" ry="4"/><ellipse id="circle7965" cx="-231.3" cy="206.3" fill="none" stroke="#7C7C79" stroke-miterlimit="10" stroke-width="2.107" rx="3.8" ry="4"/><ellipse id="circle7969" cx="-171.7" cy="206.3" fill="none" stroke="#7C7C79" stroke-miterlimit="10" stroke-width="2.107" rx="3.8" ry="4"/><ellipse id="circle7973" cx="-111.8" cy="206.3" fill="none" stroke="#7C7C79" stroke-miterlimit="10" stroke-width="2.107" rx="3.8" ry="4"/><ellipse id="circle7977" cx="-52.1" cy="206.3" fill="none" stroke="#7C7C79" stroke-miterlimit="10" stroke-width="2.107" rx="3.8" ry="4"/><ellipse id="circle7981" cx="7.6" cy="206.3" fill="none" stroke="#7C7C79" stroke-miterlimit="10" stroke-width="2.107" rx="3.8" ry="4"/><ellipse id="circle7985" cx="67.5" cy="206.3" fill="none" stroke="#7C7C79" stroke-miterlimit="10" stroke-width="2.107" rx="3.8" ry="4"/><ellipse id="circle7989" cx="127.2" cy="206.3" fill="none" stroke="#7C7C79" stroke-miterlimit="10" stroke-width="2.107" rx="3.8" ry="4"/><ellipse id="circle7997" cx="246.8" cy="206.3" fill="none" stroke="#7C7C79" stroke-miterlimit="10" stroke-width="2.107" rx="3.8" ry="4"/><ellipse id="circle7993" cx="187.1" cy="206.3" fill="none" stroke="#7C7C79" stroke-miterlimit="10" stroke-width="2.107" rx="3.8" ry="4"/><ellipse id="circle8001" cx="306.7" cy="206.3" fill="none" stroke="#7C7C79" stroke-miterlimit="10" stroke-width="2.107" rx="3.8" ry="4"/><ellipse id="circle8005" cx="366.4" cy="206.3" fill="none" stroke="#7C7C79" stroke-miterlimit="10" stroke-width="2.107" rx="3.8" ry="4"/><ellipse id="circle8009" cx="426.3" cy="206.3" fill="none" stroke="#7C7C79" stroke-miterlimit="10" stroke-width="2.107" rx="3.8" ry="4"/><ellipse id="circle8013" cx="486" cy="206.3" fill="none" stroke="#7C7C79" stroke-miterlimit="10" stroke-width="2.107" rx="3.8" ry="4"/><text fill="#FFF" font-family="'ArialMT'" font-size="9.74" transform="matrix(7.928899e-002 4.5584 -3.6811 -6.354056e-002 471.5955 233.8528)">led</text><text fill="#FFF" font-family="'ArialMT'" font-size="9.74" transform="matrix(7.928899e-002 4.5584 -3.6811 -6.354056e-002 410.2328 231.6301)">led</text><text fill="#FFF" font-family="'ArialMT'" font-size="9.74" transform="matrix(7.930552e-002 2.822 -3.6815 -3.933631e-002 353.1177 235.962)">DB7</text><text fill="#FFF" font-family="'ArialMT'" font-size="9.739" transform="matrix(7.932001e-002 2.6797 -3.6815 -3.735178e-002 294.4475 235.4477)">DB6</text><text fill="#FFF" font-family="'ArialMT'" font-size="9.739" transform="matrix(7.931543e-002 2.7392 -3.6815 -3.816685e-002 234.4713 235.3495)">DB5</text><text fill="#FFF" font-family="'ArialMT'" font-size="9.74" transform="matrix(7.931633e-002 2.835 -3.6815 -3.951351e-002 171.7659 235.4717)">DB4</text><text fill="#FFF" font-family="'ArialMT'" font-size="9.739" transform="matrix(7.931796e-002 2.6693 -3.6815 -3.721003e-002 52.9951 235.5726)">DB2</text><text fill="#FFF" font-family="'ArialMT'" font-size="9.74" transform="matrix(7.930887e-002 3.014 -3.6815 -4.199417e-002 -1.1976 235.149)">DB1</text><text fill="#FFF" font-family="'ArialMT'" font-size="9.74" transform="matrix(7.932328e-002 2.8112 -3.6815 -3.915912e-002 111.8005 236.6308)">DB3</text><text fill="#FFF" font-family="'ArialMT'" font-size="9.74" transform="matrix(7.931579e-002 2.9708 -3.6815 -4.139172e-002 -61.1938 235.165)">DB0</text><text fill="#FFF" font-family="'ArialMT'" font-size="9.74" transform="matrix(7.928899e-002 4.5584 -3.6811 -6.354056e-002 -119.7961 233.8476)">E</text><text fill="#FFF" font-family="'ArialMT'" font-size="9.74" transform="matrix(7.931513e-002 3.5189 -3.6814 -4.904636e-002 -185.5184 234.6398)">RW</text><text fill="#FFF" font-family="'ArialMT'" font-size="9.74" transform="matrix(7.928899e-002 4.5584 -3.6811 -6.354056e-002 -242.6495 233.8494)">RS</text><text fill="#FFF" font-family="'ArialMT'" font-size="9.74" transform="matrix(7.928899e-002 4.5584 -3.6811 -6.354056e-002 -302.6493 233.8474)">V0</text><text fill="#FFF" font-family="'ArialMT'" font-size="9.74" transform="matrix(7.931972e-002 2.833 -3.6815 -3.947807e-002 -363.8907 234.0062)">VCC</text><text fill="#FFF" font-family="'ArialMT'" font-size="9.739" transform="matrix(7.933308e-002 2.5493 -3.6815 -3.550900e-002 -422.3834 234.627)">GND</text></g><g id="g28345" transform="translate(-804.70349,97.12439)"><path id="rect8017" fill="#010101" fill-opacity=".3" d="M363.2,225.4h1578.9c6.2,0,11.5,5,11.5,11.5v544 c0,6.2-5,11.5-11.5,11.5H363.2c-6.2,0-11.5-5-11.5-11.5v-544C352,230.7,357,225.4,363.2,225.4z"/><path id="rect8025" fill="#333" d="M363.2,225.4h1578.9c6.2,0,11.5,5,11.5,11.5v544c0,6.2-5,11.5-11.5,11.5H363.2 c-6.2,0-11.5-5-11.5-11.5v-544C352,230.7,357,225.4,363.2,225.4z"/><path id="rect8027" fill="#A9CF38" d="M415.7,315.6h1462.8c6.2,0,11.5,5,11.5,11.5v337c0,6.2-5,11.5-11.5,11.5H415.7 c-6.2,0-11.5-5-11.5-11.5V327C404.4,320.8,409.4,315.6,415.7,315.6z"/></g></g></g></svg>