<svg xmlns="http://www.w3.org/2000/svg" xmlns:svg="http://www.w3.org/2000/svg" xmlns:xlink="http://www.w3.org/1999/xlink" id="svg4700" x="0" y="0" enable-background="new 0 0 67 159" version="1.1" viewBox="0 0 67 159" xml:space="preserve"><g id="layer1"><g id="g5277"><path id="path3198" fill="none" stroke="#8C8C8C" stroke-linecap="round" stroke-miterlimit="10" stroke-width="2.182" d="M18.6,157.9l-1-93.3C17.5,56.1,9.4,44,9.4,30.8C9.4,17.5,19.5,4.6,32,4.6S54.6,16,54.6,30.7s-8.3,24.1-8.2,33.9l0.5,93.6"/><ellipse id="ellipse3204" cx="33.1" cy="30.3" fill="#AA5A24" rx="33.1" ry="30.3"/><ellipse id="ellipse3206" cx="33.1" cy="30.3" fill="#DBDDAF" rx="28.8" ry="25.8"/><ellipse id="circle3208" cx="10.8" cy="30.2" fill="#CECCB3" rx="2.9" ry="3"/><ellipse id="circle3210" cx="55.4" cy="30.4" fill="#CECCB3" rx="2.9" ry="3"/><path id="path3212" fill="none" stroke="#B4622B" stroke-miterlimit="10" stroke-width="1.562" d="M48,51.9c0-2.1-1.6-3.8-3.6-3.8H20.8c-2,0-3.6-1.7-3.6-3.8c0-2.1,1.6-3.8,3.6-3.8h23.7c2,0,3.6-1.7,3.6-3.8c0-2.1-1.6-3.8-3.6-3.8 H20.8c-2,0-3.6-1.7-3.6-3.8c0-2.1,1.6-3.8,3.6-3.8h23.7c2,0,3.6-1.7,3.6-3.8s-1.6-3.8-3.6-3.8H20.8c-2,0-3.6-1.7-3.6-3.8 s1.6-3.8,3.6-3.8h23.7c2,0,3.6-1.7,3.6-3.8"/></g></g></svg>