<svg xmlns="http://www.w3.org/2000/svg" xmlns:svg="http://www.w3.org/2000/svg" xmlns:xlink="http://www.w3.org/1999/xlink" id="svg2367" x="0" y="0" enable-background="new 0 0 68 148" version="1.1" viewBox="0 0 68 148" xml:space="preserve"><g id="layer1"><g id="g5868"><path id="path1168" fill="none" stroke="#8C8C8C" stroke-linecap="round" stroke-miterlimit="10" stroke-width="1.765" d="M59.6,145.5L59.2,85c0-4.7-10-4.7-10-9V62.4"/><path id="path1170" fill="none" stroke="#8C8C8C" stroke-linecap="round" stroke-miterlimit="10" stroke-width="1.765" d="M7.6,145L7.2,84.7c0-4.7,10.1-4.7,10.1-9.1V62.1"/><path id="path1172" fill="none" stroke="#8C8C8C" stroke-linecap="round" stroke-miterlimit="10" stroke-width="1.765" d="M33.3,145.5l0-98.1"/><path id="path1182" fill="#333" d="M64.8,65.1c1.5-1.5,2.4-3.1,2.4-4.7V14.5 c0-7.1-15-12.9-33.6-12.9C15,1.6,0,7.4,0,14.5v45.9c0,1.7,0.9,3.3,2.4,4.7H64.8z"/><path id="path1184" fill="#595959" d="M60.7,20.9v41h-54v-41H60.7 M65,17.6H2.4v47.5H65L65,17.6 z"/><path id="path1186" fill="#595959" d="M6.2,17.6l0-1.6c-1.2-1-1.8-2.1-1.8-3.1 c0-4.5,12.5-9.6,29.3-9.6c16.8,0,29.3,5.1,29.3,9.6c0,1-0.7,2.1-1.8,3.1l0,1.4l3.8,0.1c1.4-1.4,2.3-3,2.3-4.6 C67.2,5.8,52.2,0,33.6,0C15.1,0,0,5.8,0,12.9c0,1.7,0.9,3.2,2.3,4.7L6.2,17.6z"/><text fill="#FFF" font-family="'ArialMT'" font-size="20" transform="matrix(0.5666 0 0 1 15.3643 44.2813)">TMP36</text></g></g></svg>